/* XPM */
static char * flower_xpm[] = {
"16 16 218 2",
"  	c None",
". 	c #969696",
"+ 	c #969697",
"@ 	c #969496",
"# 	c #98889E",
"$ 	c #9262C1",
"% 	c #8F50D0",
"& 	c #9A73B1",
"* 	c #989496",
"= 	c #979797",
"- 	c #979796",
"; 	c #979798",
"> 	c #989898",
", 	c #989895",
"' 	c #968BA0",
") 	c #8C4CD2",
"! 	c #851EF9",
"~ 	c #871BFB",
"{ 	c #8932E6",
"] 	c #958AA0",
"^ 	c #989794",
"/ 	c #989896",
"( 	c #9587A5",
"_ 	c #8B44DA",
": 	c #851CFA",
"< 	c #861BFB",
"[ 	c #852CE6",
"} 	c #94879E",
"| 	c #979695",
"1 	c #98899D",
"2 	c #9477AF",
"3 	c #9882A4",
"4 	c #9C9891",
"5 	c #979697",
"6 	c #968D9C",
"7 	c #98899E",
"8 	c #958D9C",
"9 	c #9C9493",
"0 	c #945BC2",
"a 	c #861EF8",
"b 	c #832DDF",
"c 	c #9381A3",
"d 	c #9369BC",
"e 	c #8F3EE1",
"f 	c #8B22F5",
"g 	c #8E32E9",
"h 	c #9871B1",
"i 	c #989596",
"j 	c #978A9B",
"k 	c #8A4DCD",
"l 	c #8737E1",
"m 	c #8A4AD3",
"n 	c #916AB8",
"o 	c #9160C0",
"p 	c #8826EF",
"q 	c #841BF9",
"r 	c #7F2ED7",
"s 	c #8D53CA",
"t 	c #8C2BEF",
"u 	c #8C1CFB",
"v 	c #8E1BFC",
"w 	c #8E1CFA",
"x 	c #9041DC",
"y 	c #988A9F",
"z 	c #906CB4",
"A 	c #8121F0",
"B 	c #8016F9",
"C 	c #821EF8",
"D 	c #872AEF",
"E 	c #8939E2",
"F 	c #7C2CDA",
"G 	c #6941BD",
"H 	c #7131C9",
"I 	c #8723EF",
"J 	c #8A1BFB",
"K 	c #8A1BFC",
"L 	c #8F1BFC",
"M 	c #8D33E6",
"N 	c #9784A0",
"O 	c #8950CB",
"P 	c #7E18F6",
"Q 	c #7E18F9",
"R 	c #801AFB",
"S 	c #841BFB",
"T 	c #831BF8",
"U 	c #5A6790",
"V 	c #2BBF2F",
"W 	c #4E747B",
"X 	c #8120EC",
"Y 	c #861AF6",
"Z 	c #871AF4",
"` 	c #841AF0",
" .	c #7D1FDD",
"..	c #834FBA",
"+.	c #938F97",
"@.	c #9062B9",
"#.	c #7E1FEA",
"$.	c #7D17F0",
"%.	c #7A1BF0",
"&.	c #7C1BEE",
"*.	c #7F1BF1",
"=.	c #576490",
"-.	c #2BC128",
";.	c #507A75",
">.	c #761ED9",
",.	c #711FCA",
"'.	c #6D30B4",
").	c #7242A1",
"!.	c #785B97",
"~.	c #8B8292",
"{.	c #969694",
"].	c #978D98",
"^.	c #8560AC",
"/.	c #733CB3",
"(.	c #6D31B4",
"_.	c #7323CF",
":.	c #801DEE",
"<.	c #7B2ADD",
"[.	c #61509F",
"}.	c #7731D2",
"|.	c #871BF6",
"1.	c #802ADF",
"2.	c #8659B7",
"3.	c #968B91",
"4.	c #959493",
"5.	c #959696",
"6.	c #969796",
"7.	c #969595",
"8.	c #959193",
"9.	c #938994",
"0.	c #8A52C2",
"a.	c #8422EE",
"b.	c #841BFA",
"c.	c #871EF6",
"d.	c #7E2ADB",
"e.	c #8827EE",
"f.	c #891BFB",
"g.	c #891CFA",
"h.	c #8B2AF0",
"i.	c #935BC9",
"j.	c #9C9392",
"k.	c #989695",
"l.	c #959796",
"m.	c #979297",
"n.	c #9068BB",
"o.	c #8527F1",
"p.	c #851BFC",
"q.	c #861CFC",
"r.	c #8320F2",
"s.	c #7F48B7",
"t.	c #8E3FDB",
"u.	c #8A1CFB",
"v.	c #891BFC",
"w.	c #881BFC",
"x.	c #8A22F7",
"y.	c #925EC4",
"z.	c #989297",
"A.	c #947CA6",
"B.	c #8536E3",
"C.	c #831BFB",
"D.	c #851CFC",
"E.	c #8125E8",
"F.	c #84699C",
"G.	c #935FC1",
"H.	c #8B22F8",
"I.	c #8C37E3",
"J.	c #9583A3",
"K.	c #999795",
"L.	c #9671AE",
"M.	c #8127EE",
"N.	c #821BFC",
"O.	c #841AFB",
"P.	c #792ECF",
"Q.	c #8C8295",
"R.	c #957FA8",
"S.	c #8B2DEC",
"T.	c #8A37DF",
"U.	c #9484A0",
"V.	c #969695",
"W.	c #9582A4",
"X.	c #863FDB",
"Y.	c #7F1CF8",
"Z.	c #821AFB",
"`.	c #7F1CEF",
" +	c #7B4FAB",
".+	c #979390",
"++	c #999693",
"@+	c #9059C5",
"#+	c #881EF7",
"$+	c #871BFA",
"%+	c #8828EB",
"&+	c #8E6AAE",
"*+	c #999691",
"=+	c #969298",
"-+	c #967BA5",
";+	c #8642D6",
">+	c #8330E1",
",+	c #7B3DC4",
"'+	c #8B7C99",
")+	c #959695",
"!+	c #9484A1",
"~+	c #8C50CC",
"{+	c #8A46D2",
"]+	c #906AAF",
"^+	c #968F95",
"/+	c #969599",
"(+	c #979597",
"_+	c #999697",
":+	c #9588A0",
"<+	c #9481A1",
"[+	c #918799",
"}+	c #959497",
"|+	c #959897",
"1+	c #948F9B",
"2+	c #948C99",
"3+	c #979493",
"4+	c #969597",
"5+	c #969594",
". + . + @ # $ % & * . . + . = - ",
"; - > , ' ) ! ~ { ] - - ^ / = = ",
"- . - , ( _ : < [ } | 1 2 3 4 = ",
"5 6 7 8 9 0 a < b c d e f g h i ",
"j k l m n o p q r s t u v w x y ",
"z A B C D E F G H I J K v L M N ",
"O P Q R S T U V W X Y Z `  ...+.",
"@.#.$.%.&.*.=.-.;.>.,.'.).!.~.{.",
"].^./.(._.:.<.[.}.|.1.2.3.4.5.6.",
"7.8.9.0.a.b.c.d.e.f.g.h.i.j.k.> ",
"l.m.n.o.p.q.r.s.t.u.v.w.x.y.z.- ",
"| A.B.C.p.D.E.F.G.H.v.w.w.I.J.- ",
"K.L.M.R N.O.P.Q.R.S.K K f.T.U.. ",
"V.W.X.Y.Z.`. +.+++@+#+$+%+&+*+= ",
"+ =+-+;+>+,+'+)+V.!+~+{+]+^+V.= ",
"/+(+_+:+<+[+}+= |+7.1+2+3+4+5+V."};
