/* XPM */
static char * construct_xpm[] = {
"46 46 33 1",
" 	c None",
".	c #84858A",
"+	c #5A6E9B",
"@	c #FFFFFF",
"#	c #6B6D72",
"$	c #8EA3D2",
"%	c #3A4D78",
"&	c #E6E6E7",
"*	c #D6D6D8",
"=	c #B8B8BA",
"-	c #C5C6C9",
";	c #7A91C3",
">	c #91939A",
",	c #A4A5AA",
"'	c #F5F5F5",
")	c #0F1013",
"!	c #42598C",
"~	c #BDBFC5",
"{	c #CBCCCE",
"]	c #34363B",
"^	c #F8F8F8",
"/	c #9C9DA1",
"(	c #ADADB0",
"_	c #DDDEDF",
":	c #ECECEE",
"<	c #F0F0F2",
"[	c #81714E",
"}	c #B0B2B8",
"|	c #F0F4FD",
"1	c #D1D1D2",
"2	c #FCFDFD",
"3	c #FAFAFA",
"4	c #F7F9FE",
"@@@@@@@@@@@@@@@@@@@@@@@@@@@@@@@@@@@@@@@@@@@@@@",
"@@@@@@@@@@@@@@@@@@@@@@@@@@@@@@@@@@@@@@@@@@@@@@",
"@@@@@@@@@@@@@@@@@@@@@4::<&_*}$;${~2@@@@@@@@@@@",
"@@@@@@@@@@@@@@':&_{};;;;}=~~>+++--:@@@@@@@@@@@",
"@@@@@@@@@@@@@_&{/,>+!!%+,,(,+!+>{11@@@@@@@@@@@",
"@@@@@@@@@@@@@1@{>>#%%!!.,,(>!++}-*~@@@@@@@@@@@",
"@@@@@@@@@@@@2{4*>>!%!%+/,(,+!!.}~{>'@@@@@@@@@@",
"@@@@@@@@@@@@'_2|=#%%%%.//,>!!+;=~}+_@@@@@@@@@@",
"@@@@@@@@@@@@&*:|~%%%%!>//,+!!+,=~;+~@@@@@@@@@@",
"@@@@@@@@@@@@~$.;$%%%%#///>!!!+(}}++;@@@@@@@@@@",
"@@@@@@@@@@@@$;]%$%%%%>>/,+%!!/(}/+!.'@@@@@@@@@",
"@@@@@@@@@@@2$;)]$+%%+>>/>!%%+,,(;!!;<@@@@@@@@@",
"@@@@@@@@@@@&$+));;]%.>>/.%%%.}(/+;-=2@@@@@@@@@",
"@@@@@@@@@@@-;%))+;%!.>>>!%!!>>}1<'<=2@@@@@@@@@",
"@@@@@@@@@@@-~]))%;!...>.%!+,,/2@@@_~:@@@@@@@@@",
"@@@@@@@@@@@1&])]#$$.>>.#;~'&.1@@@@_*{@@@@@@@@@",
"@@@@@@@@@@@:~).':__.>,*&2@3*#'@@@@<_(@@@@@@@@@",
"@@@@@@@@@@@:,]_@@-*._@@@@@&/>@@@@@@*,'@@@@@@@@",
"@@@@@@@@@@@1.%@@@_->*@@@@@*.-@@@@@@_=_@@@@@@@@",
"@@@@@@@@@@@~].2@@'-/(@@@@@-#3@@@@@@&1}@@@@@@@@",
"@@@@@@@@@@3=]=@@@@{(>3@@3&./@@@@@@@<_/@@@@@@@@",
"@@@@@@@@@@&(]&@@@@*-#'^&>]]&@@@@@@@2_,<@@@@@@@",
"@@@@@@@@@@1.]^@@@@<{.=>]%.#@@@@@@@@@_=*@@@@@@@",
"@@@@@@@@@2{#>@@@@3:1,]#{&/(2@@@@@@'*}=}@@@@@@@",
"@@@@@@@@@3=]_@@<*>].}.22~.^@@@@@^_=/>=/3@@@@@@",
"@@@@@@@@@:>]'<1#]](1=.&@'<2@@@3&~/>.{{/:@@@@@@",
"@@@@@@@@@_#](#)%,'@'~>=@@@@@@:-/>.(&@_=-@@@@@@",
"@@@@@@@@@1#)]#(32@@2{/>@@@@<1,..>-@@@<-,@@@@@@",
"@@@@@@@@'~)#{2@2@@@@{(#'@'*,...~'@@@@^1{@@@@@@",
"@@@@@@@@_,]&@@@@@@@@&=#-&}.../:@@@@@@@@@@@@@@@",
"@@@@@@@@1.%@@@@@@@@@2~./>..>{2@@@@@@@@@@@@@@@@",
"@@@@@@@@-].2@@@@@@@@@{>#..}<@@@@@@@@@@@@@@@@@@",
"@@@@@@@@}#&@@@@@@@@@@&(#>&@@@@@@@@@@@@@@@@@@@@",
"@@@@@@@@^2@@@@@@@@@@@^~.=@@@@@@@@@@@@@@@@@@@@@",
"@@@@@@@@@@@@@@@@@@@@@@->>@@@@@@@@@@@@@@@@@@@@@",
"@@@@@@@@@@@@@@@@@@@@@@1,#:@@@@@@@@@@@@@@@@@@@@",
"[[[[[[[[[[[[[[[[[[[[[[[[[[[[[[[[[[[[[[[[[[[[[[",
"%%%%%%%%%%%%%%%%%%%%%%%%%%%%%%%%%%%%%%%%%%%%%%",
"%%%%%%%%%%%%%%%%%%%%%%%%%%%%%%%%%%%%%%%%%%%%%%",
"%@@%%%%@@%%@%%%@%%%@@@%@@@%@@@%%@%%@%%%@@%%@@@",
"@%%@%%@%%@%@@%%@%%@%%%%%@%%@%%@%@%%@%%@%%@%%@%",
"@%%%%%@%%@%@%@%@%%%@@%%%@%%@@@%%@%%@%%@%%%%%@%",
"@%%@%%@%%@%@%%@@%%%%%@%%@%%@%@%%@%%@%%@%%@%%@%",
"%@@%%%%@@%%@%%%@%%@@@%%%@%%@%%@%%@@%%%%@@%%%@%",
"%%%%%%%%%%%%%%%%%%%%%%%%%%%%%%%%%%%%%%%%%%%%%%",
"%%%%%%%%%%%%%%%%%%%%%%%%%%%%%%%%%%%%%%%%%%%%%%"};
