/* XPM */
static char * dash_xpm[] = {
"18 18 4 1",
" 	c None",
".	c #A0A0A0",
"+	c #FFFFFF",
"@	c #000000",
"..................",
"..................",
"..................",
"..................",
"..................",
"..................",
"..................",
"....++++++++++....",
"....++++++++++@...",
"....++++++++++@...",
".....@@@@@@@@@@...",
"..................",
"..................",
"..................",
"..................",
"..................",
"..................",
".................."};
