/* XPM */
static char * delete_xpm[] = {
"18 18 11 1",
" 	c None",
".	c #888888",
"+	c #797979",
"@	c #2D2D2D",
"#	c #5A5A5A",
"$	c #4B4B4B",
"%	c #1E1E1E",
"&	c #000000",
"*	c #0F0F0F",
"=	c #6A6A6A",
"-	c #3C3C3C",
"..................",
"...+@@#.....@@$...",
"....%&*....$&&=...",
"....=&&$...*&-....",
".....@&*+.$&&+....",
".....+&&-+*&$.....",
"......-&&@&*......",
"......+*&&&#......",
".......$&&%.......",
".......$&&%.......",
"......+*&&&#......",
"......-&*%&*......",
".....+&&$+&&$.....",
".....%&%..-&*+....",
"....=&&=..+&&-....",
"....%&%....$&&+...",
"...$&&=.....*&%...",
".................."};
