/* XPM */
static char * edit_xpm[] = {
"46 46 33 1",
" 	c None",
".	c #606C95",
"+	c #FFFFFF",
"@	c #7283B7",
"#	c #CBCDD5",
"$	c #B7C8EC",
"%	c #CED8EF",
"&	c #3A4D78",
"*	c #50597B",
"=	c #B3B8C9",
"-	c #E0E1E7",
";	c #8E95AC",
">	c #A6A7B0",
",	c #DAE6F9",
"'	c #98AFE7",
")	c #8397CE",
"!	c #92A5D9",
"~	c #E6E9EF",
"{	c #828596",
"]	c #2E3450",
"^	c #F2F2F4",
"/	c #E7F0FC",
"(	c #A2B9ED",
"_	c #F0F5FD",
":	c #F9F9FA",
"<	c #F9FBFE",
"[	c #F5F8FE",
"}	c #23263F",
"|	c #FCFDFD",
"1	c #81714E",
"2	c #3D4360",
"3	c #EDEDEF",
"4	c #F6F6F7",
"++++++++++++++++++++++++++++++++++++++++++++++",
"++++++++++++++++++++++++-;#+++++++++++++++++++",
"++++++++++++++++++++++4%!).#4|+::+++++++++++++",
"+++++++++++++++++4==-#=..)&];=#=>~++++++++++++",
"+++++++++++++++++=)@**&222]*22*)@;:+++++++++++",
"+++++++++++++++3>*)@}2{#-#=>.&*@&*^+++++++++++",
"++++++++++|33->*].*}2#-->;;@)!={]2#:++++++++++",
"++++++++++-;{2}}.@2.;!..@)'$%^|~#{&=^|++++++++",
"+++++++++|>&]*;)@*#,%$!.#^||+++|<3.*@=4+++++++",
"+++++++++~!)@>=)*#|+|%$$#3+++4~-%-)@).=+++++++",
"++++++++3$%%=)@2>|+++|:/$==#=!!)))!!*2#+++++++",
"++++++:=)'){*))]>+++++++%$@@)!($$#~#**^+++++++",
"++++++-.2]}}2*]]#+++++++/$)=~34|+++<$.-+++++++",
"+++++|#&]*;>>@*>|++++++++-$#++++++++_@>|++++++",
"++++++-;!-||#){3+++++++++<,=++++++++_).-++++++",
"++++++~$,|+|%@{^++++++++++,$#-,%%%%%%(){~+++++",
"++++++%$/++:$@;^+++++++++|%%@)!''''!!'!*>+++++",
"+++++<=(~++-;.=|++++++++++%';%%##==##)&*++++++",
"+++++#@..>>;@.{^++++++++++4$-++++++||/@-++++++",
"+++++;*}}]}.'@2>++++++++++_#4+++++++|%@3++++++",
"+++++3;*=>{*.22-+++++++++|,=~|++++++<$;^++++++",
"++++++4=,:|-*}.3|++++++++,,''$%%%~3^,!@^++++++",
"+++++++#!_+|#{*#+++++++++,(.@))'(((($!.#++++++",
"+++++++~)(,+:=*;:+++++++[/;#43-=;;{;!)&=++++++",
"+++++++#@..=-%.*#++++++_/=~+++++|+|/!2.4++++++",
"+++++++~{}}2.{..{-++++_/($4<+++++++,@;:|++++++",
"+++++++<->{2]].'..3[__$!@)($,/[<+^%);4++++++++",
"+++++++++|4#@@.!.}>,%==>{>;@@)'%,$@.3+++++++++",
"++++++++++++=*]]}]*@)!-:||:##>;@!(@.3+++++++++",
"++++++++++++3;{.]]&&&@'$/<++:[,)..&.3+++++++++",
"+++++++++++++:|^={]]*@.&)'$%);@..{{-++++++++++",
"+++++++++++++++++4=*.(.}&*.)!&2>-::+++++++++++",
"+++++++++++++++++++-..2*{.2.@*>|++++++++++++++",
"+++++++++++++++++++|#.{3^3#{]{^+++++++++++++++",
"++++++++++++++++++++++++++++++++++++++++++++++",
"++++++++++++++++++++++++++++++++++++++++++++++",
"1111111111111111111111111111111111111111111111",
"&&&&&&&&&&&&&&&&&&&&&&&&&&&&&&&&&&&&&&&&&&&&&&",
"&&&&&&&&&&&&&&&&&&&&&&&&&&&&&&&&&&&&&&&&&&&&&&",
"&&&&&&&&&&&&&&&+++&&+++&&+&&+++&&&&&&&&&&&&&&&",
"&&&&&&&&&&&&&&&+&&&&+&&+&+&&&+&&&&&&&&&&&&&&&&",
"&&&&&&&&&&&&&&&+++&&+&&+&+&&&+&&&&&&&&&&&&&&&&",
"&&&&&&&&&&&&&&&+&&&&+&&+&+&&&+&&&&&&&&&&&&&&&&",
"&&&&&&&&&&&&&&&+++&&+++&&+&&&+&&&&&&&&&&&&&&&&",
"&&&&&&&&&&&&&&&&&&&&&&&&&&&&&&&&&&&&&&&&&&&&&&",
"&&&&&&&&&&&&&&&&&&&&&&&&&&&&&&&&&&&&&&&&&&&&&&"};
