/* XPM */
static char * flower_xpm[] = {
"16 16 13 1",
" 	c None",
".	c #969696",
"+	c #57A157",
"@	c #4F9A4F",
"#	c #5DA75D",
"$	c #489248",
"%	c #3B853B",
"&	c #408A40",
"*	c #55B655",
"=	c #58A258",
"-	c #3CA53C",
";	c #A6D624",
">	c #438D43",
"......+@#.......",
".....$%%&.......",
".....$%%&...**..",
".....@%%&.=$%&#.",
"...@=+&%&@&%%%$.",
".%%%&$&$&%%%%%&.",
"@%%%%%-;;%%%%%+.",
"+%%%%%-;;&%&$@..",
"*@$&%%&>&%&>....",
"...>%%%&&%%&@...",
"..+&%%%$$%%%%@..",
"..$%%%&=+%%%%$..",
".=%%%%&.*&%%%&..",
".*$%%%>..@%%&#..",
"..*&&&*...$$=...",
"................"};
