/* XPM */
static char * mate_xpm[] = {
"21 21 32 1",
" 	c None",
".	c #000000",
"+	c #FFFFFF",
"@	c #010100",
"#	c #040200",
"$	c #070300",
"%	c #0A0400",
"&	c #130700",
"*	c #0F0500",
"=	c #030100",
"-	c #4E1800",
";	c #270C00",
">	c #3E1401",
",	c #301001",
"'	c #210B01",
")	c #1B0800",
"!	c #892A01",
"~	c #982F02",
"{	c #792502",
"]	c #6E2202",
"^	c #601E02",
"/	c #A43304",
"(	c #AB3809",
"_	c #AE3D0E",
":	c #B44111",
"<	c #AE4114",
"[	c #BE4B1C",
"}	c #CE5B2B",
"|	c #DD6C3C",
"1	c #E97849",
"2	c #FE966B",
"3	c #FFCCB7",
"][1>,>-|332];,{31-)]3",
"<|3[;>,-[332!,;(3|);1",
"<323_;>>-<333];;|3]%'",
"^2323}->>,~33|>;-22|(",
"]/+3131{,>)_33~';-/|3",
"{][+2}22^,;'}32{))))<",
"]{{(32}2|,;))[21:-'';",
"~^]>/21}2/&)&'(32},;'",
"2{>>;!21}1^*&%;||1!)'",
"21];;&!221},%**]1|~&&",
"|21^&&@]11|~$*;'_|~=$",
"212}'&&#^1}(>%;%!|{.#",
"12||/$**.]}/~'&.^[-.*",
">||}}]$$=*!/:>@.^:;.,",
"='~}_:-.#.,:(-..{(&.^",
")@$^(//'.=#!/].@{!=#!",
"{*..]:({@=.-:~&.{-.)~",
"~]..*!_/;.@*!:^.>&.,~",
"{~^&@)~/]@.=,(/>..@-/",
"]-]{%.-//,..#!/{#..]/",
"4)>/>.*!/]#..]~!&.={~"};
