/* XPM */
static char * materials_xpm[] = {
"46 46 33 1",
" 	c None",
".	c #FFFFFF",
"+	c #ADADAE",
"@	c #4E5C77",
"#	c #6C81AB",
"$	c #3B4D77",
"%	c #CCCCCD",
"&	c #636F88",
"*	c #848891",
"=	c #C8D4EE",
"-	c #BFC9E0",
";	c #8EA5D2",
">	c #A7B1C6",
",	c #8A95AC",
"'	c #E1E8F4",
")	c #D7E0F1",
"!	c #9C9EA1",
"~	c #7A93C5",
"{	c #E2E1E0",
"]	c #F4F6FA",
"^	c #9CB4E3",
"/	c #3B4458",
"(	c #F0F2F4",
"_	c #E9EFF9",
":	c #ADBFE2",
"<	c #F9FBFD",
"[	c #D7D9DC",
"}	c #BDBEBF",
"|	c #F4F1ED",
"1	c #EEEDEC",
"2	c #81714E",
"3	c #2E384C",
"4	c #FBFBFA",
"..............................................",
"..................([}>>>%{{(4.................",
"...............4)-}+,*&@&*!}%[]...............",
"..............(-,;%}++!&/$@&!*,)..............",
"............<'_),,}}}!&$$/$/&*##-.............",
"............=;[>#&&*!&$$@$$$&+}>;=............",
"..........._::;##&@&,&@$$@$&!+%1)=]...........",
"..........')_]>#&&#+++*@$$&!+}}{.]]...........",
"........._^'..-##>}++++!&&+++}}[1=:]..........",
".........:^<..'>%%}+++++**}}}%%{%~~-<.........",
"........';=..'-'{}}+++!*@&!}%%{[~#~;=]........",
"........:;'_=^;}[}}++!&@$@&+%{{;##~~;)........",
".......<=--:^^,;%}}+*&@@@@@&}{>##~~~:)].......",
".......<<_^;;;,#+}+*@$@@@&&&~>#~~~~~)]_.......",
".........);;;,#&*,&$$@@@@&@#-[;~;;~:<<].......",
".........)~####*!&$@@@@@@@#-4.);^;^'..........",
".........{###,+++*@$@@@@@,%|...=^^)...........",
".......(_[,;}}}+!!@$@$$@,%{(...]=)...]_.......",
".......-~,%[}}!!!!*$$$&!}%{]...<_<...)=.......",
".......-&&}%}+!!*!*&@&!+}%{]...)=_..<:-.......",
".......)#&!}+!!*!**&*!++}%{].]=:^=<.-;).......",
".......(#@#}+!***&@/*!!+}%{4':^^^^'';^_.......",
"........>@&!!**@////@*++}%{-;~;^;;:^~=........",
"........',#*&@///////&!+}},##~~~~:';;_........",
".........%!*///333////*+!#&###~~:]<:=.........",
".........|+*@3/33333/$&*@@&###~:].<'].........",
"..........[*&/33333/@*!*@@&&&~=..<=_..........",
"..........4}2/333/@&**!+,&@#;[4.(:-4..........",
"...........]!/3@/@@22**++##>{|4[>:]...........",
"............<+/3//2&&**!*&,%[%>,-4............",
"..............[2////@2@@$$@*+!>[..............",
"...............<[!2/3333/@&!})]...............",
".................4{%!**,!}{(<.................",
"......................444.....................",
"..............................................",
"..............................................",
"2222222222222222222222222222222222222222222222",
"$$$$$$$$$$$$$$$$$$$$$$$$$$$$$$$$$$$$$$$$$$$$$$",
"$$$$$$$$$$$$$$$$$$$$$$$$$$$$$$$$$$$$$$$$$$$$$$",
"$$$$.$$$.$$..$$$...$$...$...$$$.$$..$$$.$$$$$$",
"$$$$..$..$.$$.$$$.$$$.$$$.$$.$$.$.$$.$$.$$$$$$",
"$$$$.$.$.$....$$$.$$$...$...$$$.$....$$.$$$$$$",
"$$$$.$$$.$.$$.$$$.$$$.$$$.$.$$$.$.$$.$$.$$$$$$",
"$$$$.$$$.$.$$.$$$.$$$...$.$$.$$.$.$$.$$...$$$$",
"$$$$$$$$$$$$$$$$$$$$$$$$$$$$$$$$$$$$$$$$$$$$$$",
"$$$$$$$$$$$$$$$$$$$$$$$$$$$$$$$$$$$$$$$$$$$$$$"};
