/* XPM */
static char * primitive_xpm[] = {
"46 46 33 1",
" 	c None",
".	c #686D8C",
"+	c #585A75",
"@	c #FFFFFF",
"#	c #CBD7F6",
"$	c #808DB9",
"%	c #D2D3D8",
"&	c #BCBCC4",
"*	c #747CA0",
"=	c #A6A7B2",
"-	c #B9C8F2",
";	c #E7E7E9",
">	c #8D9BCA",
",	c #95A5D7",
"'	c #ACBDED",
")	c #9292A1",
"!	c #E1EBFB",
"~	c #EEEEF0",
"{	c #1E151D",
"]	c #D6E1F9",
"^	c #E9F1FB",
"/	c #31293C",
"(	c #A1AFDC",
"_	c #F8F8FA",
":	c #EFF9FD",
"<	c #F6F6F7",
"[	c #FAFBFC",
"}	c #FCFDFD",
"|	c #48475F",
"1	c #DFDFE3",
"2	c #3A4D78",
"3	c #81714E",
"4	c #3C3748",
"@@@@@@@@@@@@@@@@@@@@@@@@@@@@@@@@@@@@@@@@@@@@@@",
"@@@@@@@@@@@@@@@@@@@@@@@@@@<;;;1~__@@@@@@@@@@@@",
"@@@@@@@@@@@@@@@@@@@@@@@[~%=))++*)&1~@@@@@@@@@@",
"@@@@@@@@@@@@@@@@@@@@@};&)+++|||444+)1@@@@@@@@@",
"@@@@@@@@@@@@@@@@@@@@<%)+.****...++||.;@@@@@@@@",
"@@@@@@@@@@@@@@@@@@@~&*.*$>>>$*.....|4)}@@@@@@@",
"@@@@@@@@@@@@@@@@@@~=.*$,(''(>$*.....||1@@@@@@@",
"@@@@@@@@@@@@@@@@@;).*,(-]]#',$*..**.+/=}@@@@@@",
"@@@@@@@@@@@@@@@@%).$,'-]^!#',$..****.4.~@@@@@@",
"@@@@@@@@@@@@@@@%**>(--#]#-''-(*.*$**.||;@@@@@@",
"@@@@@@@@@@@@@@%**>'##]#-'#]^_1*.$$$**||;@@@@@@",
"@@@@@@@@@@@@@%**>-!!]#--]<}@@%**$$$**+|1@@@@@@",
"@@@@@@@@@@@@1*.>-:[^]-#^}@@@_=.$$>$*.++;@@@@@@",
"@@@@@@@@@@@~)+$'!}@^-#<@@@@@1**$>>$*.+.~@@@@@@",
"@@@@@@@@@@@&.*,#:@[##_@@@@@_=*$>,>$*.+)~@@@@@@",
"@@@@@@@@@@;*.$']:}]#_@@@@@@%$$>,(>$*++&[@@@@@@",
"@@@@@@@@@[=|*,']:!#<@@@@@@;)*$('(>*...%@@@@@@@",
"@@@@@@@@@1.+$,-]!#!@@@@@@;=*$('-($*..=^@@@@@@@",
"@@@@@@@@}&|*$,'##]}@@@@@1)*$,'#'>*..$%}@@@@@@@",
"@@@@@@@@<)+*$,'-#^@@@@@~=*$,'#-,$..*&~@@@@@@@@",
"@@@@@@@@;++**$('][@@@<%)*$>(--($...)1}@@@@@@@@",
"@@@@@@@@%4+.**$,!@@<%=***>('',$*.+*&^@@@@@@@@@",
"@@@@@@@@&4+....*%~%&).*$>>((,$*.++);@@@@@@@@@@",
"@@@@@@@@%/++.+++*)*..**$$>>)**++|.%@@@@@@@@@@@",
"@@@@@@@}%4|++.++++..**$$$$$*.+||.&_@@@@@@@@@@@",
"@@@@@@@@1||+++.....*******..+||+&_@@@@@@@@@@@@",
"@@@@@@@@<.4||++++....*....+|4/+&<@@@@@@@@@@@@@",
"@@@@@@@@}&|++++++.+..+.+++|//.&[}@@@@@@@@@@@@@",
"@@@@@@@@@^)....++++++++||/{{)%}@@@@@@@@@@@@@@@",
"@@@@@@@@@}%)***.+||||44/{{|=~}@@@@@@@@@@@@@@@@",
"@@@@@@@@@@_%=.+||4//{{{{4)1[@@@@@@@@@@@@@@@@@@",
"@@@@@@@@@@@_1&.|/{{/{43=%~[}@@@@@@@@@@@@@@@@@@",
"@@@@@@@@@@@@}<~%&&=)&1;<}@@@@@@@@@@@@@@@@@@@@@",
"@@@@@@@@@@@@@@@}}}<<@@@@@@@@@@@@@@@@@@@@@@@@@@",
"@@@@@@@@@@@@@@@@@@@@@@@@@@@@@@@@@@@@@@@@@@@@@@",
"@@@@@@@@@@@@@@@@@@@@@@@@@@@@@@@@@@@@@@@@@@@@@@",
"3333333333333333333333333333333333333333333333",
"2222222222222222222222222222222222222222222222",
"2222222222222222222222222222222222222222222222",
"222@@@222@@@22@22@222@2@22@@@22@2@222@22@@@222",
"222@22@22@22@2@22@@2@@2@222@222@2@222@22@22222",
"222@@@222@@@22@22@2@2@2@222@222@22@2@222@@@222",
"222@22222@2@22@22@222@2@222@222@22@2@222@22222",
"222@22222@22@2@22@222@2@222@222@222@2222@@@222",
"2222222222222222222222222222222222222222222222",
"2222222222222222222222222222222222222222222222"};
