/* XPM */
static char * rend_xpm[] = {
"46 21 33 1",
" 	c None",
".	c #0D1C35",
"+	c #526D95",
"@	c #5C79A5",
"#	c #455B7C",
"$	c #58749D",
"%	c #496081",
"&	c #607DA9",
"*	c #4E6586",
"=	c #6581AA",
"-	c #6985AD",
";	c #6F8AB1",
">	c #5C718F",
",	c #536A8A",
"'	c #748EB2",
")	c #7089AB",
"!	c #7A93B6",
"~	c #6E85A4",
"{	c #6A7F9B",
"]	c #637995",
"^	c #819AB9",
"/	c #17304D",
"(	c #203D5E",
"_	c #374A60",
":	c #28496C",
"<	c #325475",
"[	c #3A5F81",
"}	c #456B8C",
"|	c #4F7595",
"1	c #567C9B",
"2	c #5F84A2",
"3	c #6F92AD",
"4	c #DAE5ED",
"%#%%%%%**,,,>>>]]{{{~{~~~~~~~~-~=-====&&&&@@@$",
"######%%**,,>>>]]]{{{~~~~~~~~~~=~==&&&&&@&@@@@",
"#<####%%%*,,>>]]]{{,_(//(_*~~~~~=~{=2&&@@@@$$$",
"#####%%**,,>>]]]{>(.../((((_>)~)~~====&&&&@@@@",
"####%%%*,,>>>]]{>/..///((::::>))))-~====&&@@@@",
"#####%**,>>>]]{]_...//((:<[[[<{))))--===&@@@@@",
"#[#%%%*,,,>>]{{_.../(:::<[[[[}#''');---&&&@&@@",
"##%%**,,>>]]{{>_...//(:<<[}}|}}>'';;;;--&&&&&&",
"%%%**,,,>]]{{{#.....((:<[[}||||}!!'';;---&-&&&",
"*}**,,>>>]]{~~_..../:::<[|!311|}^!!''';-----&-",
"}**++++]${{{~~_..../(:<<[^44211|!^!!!;;;;-;--&",
"+++++$]$@2~)~~/.../((:<<}^442|1+^^^^!';;;;;---",
"+*++++$@{{=~)^_....((:<[}34^112,^^^!!!'';;;---",
"++++$$]@@=~))~>.../((:<[[}}11|||^^^!!!'!;;;-&-",
"++++$$$@{&~)~^{...//:::<[}}|1|})^^^^!'!;!;;;--",
"+++$$$@]==-~'~^>..//(::<[[}|}|,^^^^!!!;!;;;;--",
"++$$$$@@&{-))'3!_/.///::<<[}}[^^^^^!!';;;;;---",
"++++$$@]&==~)))!!_../((::<[[[)^^^!!!';;;;;-&&&",
"++++$$$@@{&~)~')3'|(//((::<,!^^!!!';';---&---=",
"+++$$$@@@&==~))''!'$<((/(<>!^!!!!'';;;--&-&&&&",
"5$@$@@@&===--;''!!!^!!!^^^^^!^!!!!'';--&&&&&&&"};
