/* XPM */
static char * render_xpm[] = {
"46 46 33 1",
" 	c None",
".	c #8595B8",
"+	c #C9D9FC",
"@	c #7585A8",
"#	c #FFFFFF",
"$	c #58688B",
"%	c #D8E3FF",
"&	c #9AAACD",
"*	c #A2B2D5",
"=	c #B1C1E4",
"-	c #627295",
";	c #465679",
">	c #E3EBFF",
",	c #AABADD",
"'	c #92A2C5",
")	c #69799C",
"!	c #3D4D70",
"~	c #ECF2FF",
"{	c #B9C9EC",
"]	c #96A6C9",
"^	c #8C9CBF",
"/	c #9EAED1",
"(	c #A6B6D9",
"_	c #F2F5FF",
":	c #BFCFF2",
"<	c #ADBDE0",
"[	c #B5C5E8",
"}	c #6F7FA2",
"|	c #7D8DB0",
"1	c #657598",
"2	c #4E5E81",
"3	c #F8FAFF",
"4	c #F5F7FF",
"##############################################",
"##############################################",
"##############################################",
"##############################################",
"################3~%::+_##########~>%~3########",
"###############~+:{[==:4######3%:,*&&=%#######",
"##############~:{{[==<<%#####~:(*/]'^|.:######",
"##############+{{[[=<,,+####>=(*/&'^.@@@+#####",
"##############+{[[=<,((=~#4%<(**&]^.|@}1*#####",
"##############>{[=<,,***=:{(***&]'.|@})){#####",
"###############>[<,(**///***//&]'.|@})@=3#####",
"################>=(*/&&&&//&&&]'^.@@.<>#######",
"######3>%%%>>_3##+*/&&=:=&]]]]'^'&<:~#########",
"#####>+{[[[[[{:++[/&&:3#3+&'''^]%#############",
"####%======<<,,(*/&](_####{''^^':%%>_#########",
"###>=<<<<,,,(((*/&&'*~####{^^^^...^^],+~######",
"###{(((((******/&&]''<>#3:'.....||@@})}|<4####",
"###*/////&/&&&&&]]''^^]<*..||||||@@}))-$$^>###",
"###]]]]]'']]]]&&''^^..|||||@@@@@@@}))1$$$2&###",
"###*^^^^^^^'*:+/'^^..|@@@@}}}}}}}})1-$$$2;)###",
"###>('^^'*{+~#%]^^..|@@}}})))))))1--$$22;;-###",
"####3%%%>4###%]'^..|@})@=:/}-----$$$22;;;!.###",
"############+]'^^.|@})1*###+.$$$$$22;;;!!2%###",
"###########:'^^^.|@})--{####~&$$22;;;;!!2{####",
"#########3:^^^..|@)1-$-:#####3=12;;;;!!1:#####",
"#########{....||@)1$$$-+#######%&}$2$)&>######",
"########>^||||@})-$$$$}>#########~%+%~########",
"########:||@@@})-$$$$$.3######################",
"########=@@@})1-$$$$2$(#######################",
"########:)))1-$$22222@~#######################",
"########_'-$$$222222|%########################",
"#########_{^)$$$$$@<~#########################",
"###########3~%+++%4###########################",
"##############################################",
"##############################################",
"##############################################",
"----------------------------------------------",
"!!!!!!!!!!!!!!!!!!!!!!!!!!!!!!!!!!!!!!!!!!!!!!",
"!!!!!!!!!!!!!!!!!!!!!!!!!!!!!!!!!!!!!!!!!!!!!!",
"!!!!!!!!###!!!###!#!!!#!!###!!###!!###!!!!!!!!",
"!!!!!!!!#!!#!!#!!!##!!#!!#!!#!#!!!!#!!#!!!!!!!",
"!!!!!!!!###!!!###!#!#!#!!#!!#!###!!###!!!!!!!!",
"!!!!!!!!#!#!!!#!!!#!!##!!#!!#!#!!!!#!#!!!!!!!!",
"!!!!!!!!#!!#!!###!#!!!#!!###!!###!!#!!#!!!!!!!",
"!!!!!!!!!!!!!!!!!!!!!!!!!!!!!!!!!!!!!!!!!!!!!!",
"!!!!!!!!!!!!!!!!!!!!!!!!!!!!!!!!!!!!!!!!!!!!!!"};
