/* XPM */
static char * title1031_xpm[] = {
"258 12 9 1",
" 	c None",
".	c #020202",
"+	c #1F1F1F",
"@	c #3A3A3A",
"#	c #5B5B5B",
"$	c #767676",
"%	c #8A8A8A",
"&	c #9E9E9E",
"*	c #B2B2B2",
"******************************************************************************************************************************************************************************************************************************************************************",
"******************************************************************************************************************************************************************************************************************************************************************",
"****@%***@**@****@**@@@@#&**@@@@$****#$***%@***%#***$#*********%*******$$****$$********%*******&@&***#%****#@@@#&*%#***%#***$#************************##**%@***@#@***@%**##@%**##**%@****@%***@**@****@**@@@@#&**@@@@$****#$***%@***%#***$#********%@@#**$#***##**",
"****.+***.**.****.**.$$$@+**.$$#.&**&.+***$.#**$@***++%*******%.******@+++**++@+&*****%.*******#+#***@$****@#$$@+*$@***$@***++%***********************$@**#.%*&.*.**%.#**@$@$**++**#@****.+***.**.****.**.$$$@+**.$$#.&**&.+***$.#**$@***++%******#+#$@+*&+$*%.&**",
"****.+$**.**.****.**.****.**.***@$**##.%**$+.&*$@**&+@#******...*****$@**+$$+**@$****...*******+#+***@$****@$***.*$@***$@**&+@#***********************&.**+##*$+*+$*##+**.&#@*&++&*@#****.+$**.**.****.**.****.**.***@$**##.%**$+.&*$@**&+@#******.&***@%*$+*+#***",
"****.&.&*.**.****.**.***$+**.$$$+&**+&##**$@#@*$@**##%+********.*****@$**$@***&+%******.******%+*+%**@$****@$**$+*$@$$$#@**##%+************************+%&+&@*##*##*+&+*%+*%+*##$$*+%****.&.&*.**.****.**.***$+**.$$$+&**+&##**$@#@*$@**##%+*****$@********@++****",
"****.*#@*.**.****.**.....#**.@@@.$*%+*&+**$@*+$$@**+&*+%*******.*****@$**$@**@.+&******.******##*##**@$****@...+$*$+@@@+@**+&*+%***********************@$$#*+*@%*$@*+*#$$#**.*@%%@*+*****.*#@*.**.****.**.....#**.@@@.$*%+*&+**$@*+$$@**+&*+%****$@********#.#****",
"****.**+$.**.****.**.***$+**.***&.*#....$*$@*%+#@*%....@*******.*****@$**$@****@#******.******+....**@$****@$*****$@***$@*%....@***********************$@@$*@$.***.$@*$@@$**@$.**.$@*****.**+$.**.****.**.***$+**.***&.*#....$*$@*%+#@*%....@****$@****#%*&.#+&***",
"****.**%..**+%**%+**.****.**.***&+*.&**#@*$@**#+@*@#**&.*******.*****$@**+$@#**#@******.*****$+***+$*@$****@$*****$@***$@*@#**&.***********************&+.**$+@***++$**+.***#@@**@+$*****.**%..**+%**%+**.****.**.***&+*.&**#@*$@**#+@*@#**&.*****+%**&+%*+#*@@***",
"****.***@.**$.@@.$**.****.&*.@@@.$#@***&.*$@**%+@&.****+$******.***@**++++*&+@@+%*@****.*****+$***$@*@@@@@%@$*****$@***$@&.****+$**********@************+@**&.#***$.***@+***&.$**#.&**@**.***@.**$.@@.$**.****.&*.@@@.$#@***&.*$@**%+@&.****+$*@**$.@@+#*#+***+#**",
"****$***&$***&$$****$****$%*$$$$&*%&****$&&%***%%&%****%%******$***$***%$****$$***$****$*****$****&$*%$$$$&%&*****&%***&%&%****%%**********$************%%***$&***&$***%%****$&**&$***$**$***&$***&$$****$****$%*$$$$&*%&****$&&%***%%&%****%%*$****$$&**$&***%$**",
"******************************************************************************************************************************************************************************************************************************************************************"};
