/* XPM */
static char * title_xpm[] = {
"402 14 5 1",
" 	c None",
".	c #878787",
"+	c #5B5B5B",
"@	c #2C2C2C",
"#	c #B0B0B0",
"##################################################################################################################################################################################################################################################################################################################################################################################################################",
"##################################################################################################################################################################################################################################################################################################################################################################################################################",
"##################################################################################################################################################################################################################################################################################################################################################################################################################",
"##########.#######.###.########....########...###########################.###############################..###################.###########.####################################....########....#########....#######...#########....########.#########....######################..########....##################.##################################################################################################",
"#####@###.+#######+.##+.#######@++@.#######@+++##########@##########.+###+.#########@####################+@##################@+@.#######.@+@.##################################+++++#######+++++#######.@++.#######@++@.#######@+++#######.+#########++++.#########@##########+@++#######++++.################.@.#################################################################################################",
"#####@+##.+#######+.##+.#######@###@#######@##@#########.@+#########.@.##+.########.@+####################@#################+.##@#######+.#.+##################################+.##@#######+.##@#######.+##########@##.+#######@##########.+#########+.###########+@.#########@##.#######+.####################+.#################################################################################################",
"#####@++#.+#######+.##+.#######@##.+#######@.++#########+.@#########.++.#+.########+.@####################@#################@###@#########.@.##################################+.#.@#######+.#.@#######.+...#######@##++#######@...#######.+#########++..#########@.+#########.+#########++..##################+.#################################################################################################",
"#####@#+..+#######+.##+.#######@@@+########@++@#########@#+.########.+#@#+.########@#+.###################@#################@###@#########+@.###############...################+@@+.#######+@@+.#######.@++.#######@@@+########@+++#######.+#########++++.#######.+#@##########.@.#######++++.#################+.#################################################################################################",
"#####@##@.+#######+.##+.#######@#@#########@##.+#######+@@@@########.+##@+.#######+@@@@###################@#################@###@#######.##.@###############.++.###############+.##########+.+.########.+##########@.+#########@##########.+#########+.##########@@@@+###########@#######+.####################+.#################################################################################################",
"#####@###@+#######++##@########@#.+########@##++#######@###+.#######.+##.@.#######@###+.##################@#########.#######++#.+#######@##.+##################################+.##########+.#+########.+##########@#++########@##########.+#########+.#########.+###@########+##@#######+.####################+.#################################################################################################",
"#####@###.+########+@@+########@##++#######@@@+#######.+###.+#######.+###+.######.+###.+##################@#########@+#######+@@########.@@@###################################+.##########+.#.+#######.@@@+#######@##+.#######@@@@#######.@@@#######+@@@.######+.###+.#######+@@+#######+@@@.#################+.#################################################################################################",
"##################################################################################################################################################################################################################################################################################################################################################################################################################",
"##################################################################################################################################################################################################################################################################################################################################################################################################################",
"##################################################################################################################################################################################################################################################################################################################################################################################################################"};
