/* XPM */
static char * title1031_pre_xpm[] = {
"361 12 9 1",
" 	c None",
".	c #0B0B0B",
"+	c #262626",
"@	c #3A3A3A",
"#	c #595959",
"$	c #767676",
"%	c #8A8A8A",
"&	c #9E9E9E",
"*	c #B2B2B2",
"*************************************************************************************************************************************************************************************************************************************************************************************************************************************************************************",
"*********************************$.%***@@***********$@*****************************&#******&#@#***#@#&*******$%************.********.****************************$....+%**********************.******************************%@@%***************************************************************$@***********************************************************************",
"*********************************$..&**@@***********$@****************************%@@******++$.$*#@$#+******$.$************.********.****************************$@***@.**********************.*****************************%.$$.%**************************************************************$@***********************************************************************",
"*********************************$@+@**@@*%&**%&&%&%$@*$%***$$%**%&&$&**&$$&*****$..@******.**$@*@$**.*****@..$******&$$&**.****$&**.*%$***%$$*******************$@***$.*%&%&**%$**&%&%**&$&**.***&$&***$$%***&$%****$%*****@#**$@*****************$**&%**%$&**$**&$%**%&**$****$*%$**%&**%&&%&%$@*$%***$$%**%&&$&**&$$&******&$%*%%**%%*********************************",
"*********************************$@&.%*@@*@$**@$$..#$.+@.$*+@$.#*@.+@.&&.##.&******$@*****$@***.*%&*&.*******@$*****&.##.&*.*$..@.$*..@+@*#+#@+******************$@***#.*@..%&.+@.&$..#*@.@.$*.**@.@.$*+@$.#*%.@.#*$.@+@****%&**##*****************+%*#.**.##*%.%*##.**.#*%+****..@++*@$**@$$..#$.+@.$*+@$.#*@.+@.&&.##.&****%.@+@&.&&+&*********************************",
"*********************************$@*#+*@@*@$**@$$.**$.**%.*$**$@*@#**@$&%**+$******$@*****$@***.***@.#*******@$*****&%**+$&.*$+**%.*.&**.*%&*&.******************$.@@@.#*@#**##**##$.**%+**&.*.*%+**&.*$**$@*#$*&%*.%**+%******%.&*****************##*.@%%.&.*@@#&+%+%%@.*##****.&**.*@$**@$$.**$.**%.*$**$@*@#**@$&%**+$****+%**@*#+@#**********************************",
"*********************************$@**+#@@*@$**@$$@**$@***.*#@@+@*@%**@$&#@@.$******$@*****$@***.****&.%******@$*****&#@@.$*.*$@***.*.***.*%@@@.******************$+$$$&**@$**@+@@+@$@**$.@@@.*.*$.@@@.*#@@+@*&@.@%*.@@@.$****%++&******************%@*+$$@#*.*@%@$.*#$$#+*.%****.***.*@$**@$$@**$@***.*#@@+@*@%**@$&#@@.$****.******.+***********************************",
"*********************************$@**$+@@*@$**@$$@**$@***.%.&*$@*@$**@$#+**@$******$@*****&.**%+*.***@$******@$*****#+**@$*.*$@***.*.***.*+#**.******************$@******@$**@$****$@**$@****&.*$@****%.&*$@****$.*.********%.%*********************.$@$@.$*@$.*.@@*$@@$@@.*****.***.*@$**@$$@**$@***.%.&*$@*@$**@$#+**@$****.***@*%..%**********************************",
"*********************************$@***+.@*@#*&+$$@**$.$*#+$@**@@*@$**@$@$*&.$******$@***$**.$*@#*+$*&.&*$****@$*****@$*&.$*.*$.%*#+*.***.*.**$.********&%********$@******@$**#+&*@#$@**&.%*$.*.*&.%*$.$@**@@*@#*&.*+#*&+%***##************$*********+##&+.&*##+*++#*&++&#++**$**.***.*@#*&+$$@**$.$*#+$@**@@*@$**@$@$*&.$*%&*+$*&.*+##@**********************************",
"*********************************$@***&.@*%..++$$@**$++..&*.+.#.%@$**@$%.@+@.******$@***.**$..+&*&+.+$**.****@$*****%.@+@.*.*$++..&*.*&*.*#.+@.#*******$@********$@******@$***#..#*$@***$+.+&*.**$+.+&*.+.#.%&...$*&@..$****@....@********.*********#.&*+#**&.#*#+&**++*&.%**.**.***.*%..++$$@**$++..&*.+.#.%@$**@$%.@+@.*@$*&+.+$$+**+$*********************************",
"*****************************************************************************************************************************$@************************************************************************************************&*************************************************&***************************************************************************************",
"*****************************************************************************************************************************$@******************************************************************************************************************************************************************************************************************************************"};
