/* XPM */
static char * title2_xpm[] = {
"400 10 9 1",
" 	c None",
".	c #262626",
"+	c #3E3E3E",
"@	c #565656",
"#	c #696969",
"$	c #787878",
"%	c #868686",
"&	c #909090",
"*	c #B0B0B0",
"****************************************************************************************************************************************************************************************************************************************************************************************************************************************************************************************************************",
"*%#***#*******$&**%%******&@@@#&*******@@@#*********%$********#%**&$********&#******************&*****************$%********&$&*****************#&********#*********&@@@#*******%%**&$********&#**********************************************@**&#**#%*****$%**#**%#*****&#**$&*&@**************#%***#*******#***#*******#@@@$*******%@@@%*********#&*******&@***$&********#&*****************%@@%*******$$**%$",
"*#.@**.&******+&**#@******#+%%@@******&.%$.#********..&*******..&*&+********+.%****************&.****************++.@******&++.****************&.+********.&********%.&%+@******#@**&+********+.&*********************************************.&*@.**.%*****@@*$.$*@@*****&.*&.@*%.**************..&*&.******&.***.&******.$%%.&******@@%@.&*******%.@*******%.+**@$*******&.+****************%.$$.%******$.*&.%",
"*#.+&*+&******+&**#@******$@**&.*******.**@+*******%+.%*******.+@*&.*******&.+#***************&..***************&+&%+******##*+%***************@+.********+&********%+**&+******##**&.*******&.+#*********************************************+#&+.$&.******$+*++@*.%*****&.*%.+*@@**************.+@*&.******&.***.&******+%**@#******@#**.%*******+@.*******$+.%*+$*******@@.&***************+%**%@*******+@@@*",
"*#@@+*+&******.&**#@******#@**@@******&.##.%*******@@#+*******+$.&&+*******$+$+*****************.&**************%#**.&******&$.&***************.%+#*******.&********%+**#@******#+#$@.*******$.%.*********************************************$+&+$#%+******&.*+#+*.*******.%#@+&+$**************.&.&&+*******.***+&******+%*&.&******#+#@.********.%.%******$+$+*@$*******.$+$**************&.************&..**",
"*$@&+$+&******+&**#@******#....$******&.+@.#*******.@$.&******.&$+&.*******.@$.&****************.***************%@**+&*******+.&**************%.%++*******+&********$...+&******#.@@+.*******+@$.&**************&&&&&******&&&&&**************&+$#&+#@*******.$+*+%.*******+$@&@$+&**************.*$+&.******&.***.&******.....*******@.@+.&******$.%+@******%+*+$+$******%.$@+**************&.*************.+**",
"*#@*$..&******+%**#@******#+&&@@******&+**&+******&..+.$******+&*+@.*******....#****************.&**************%@*&+******$**$+**************@....*******.&********%.&&********#@**&+******&....#**************@++++******@+++@***************.+%*..%*******@+#*@.@*******%.+*&..***************.&*+@.******&.***.&******.$&&.&******##**#$******+....******%+*%.+$******@....&**************.&**&+*******@@+@*",
"*$@**+.&******@+&&+$******#@**%.******&.%&$+******@+*&@@******.%*%..******#.*&#+****************.********&******&+&#.******@#&+$**************.$*&.%******+%&&******%+**********#@**&+******$.&*#+****************&*********&*&****************@.&*+.&*******#.$*#.$********.@*&.+*******&*******.**%..*******.$&$+*******+&**+$******@@&&+$******.$*&.&*****$+**+.$******.#**.%******&*******@+&&+#******$.&&.*",
"*$@**%.&******&#.+#*******$@**&+&******....&******+$**&+******+&**@+******@#**&+****************.********+&******$.+%*******+.@***************.&**#@******+...%*****%@**********$#**&+******@#***.*********************************************#+**$+********&.&*&.&********.%**+$*******##******.&**#+*******%+.+%*******+&**#@******#...@******&.***@$*****%@***.$******.***##******+&*******@.+#*******+$**@@",
"****************************************************************************************************************************************************************************************************************************************************************************************************************************************************************************************************************"};
