/* XPM */
static char * zoom_xpm[] = {
"18 18 3 1",
" 	c None",
".	c #A0A0A0",
"+	c #000000",
"..................",
"..................",
"........++........",
"........++........",
"........++........",
"........++........",
"....++++++++++....",
"....++++++++++....",
"........++........",
"........++........",
"........++........",
"........++........",
"..................",
"..................",
".....++++++++.....",
".....++++++++.....",
"..................",
".................."};
