/* XPM */
static char * curve_xpm[] = {
"35 35 17 1",
" 	c None",
".	c #FE0202",
"+	c #667A8F",
"@	c #6C7F93",
"#	c #76889B",
"$	c #8596A7",
"%	c #9BA8B7",
"&	c #A8B3BF",
"*	c #BEC6CE",
"=	c #C2CAD2",
"-	c #D2DADF",
";	c #E2E6EB",
">	c #EEEEF2",
",	c #FEFEFE",
"'	c #B8C1CC",
")	c #8292A6",
"!	c #91A0B0",
",,,,,,,,,,,,,,,,,,,,,,,,,,,,,,,,,,,",
",,,,,,,,,,,,,,,,,,,,,,,,,,,,,,,,,,,",
",,,,,,,,,,,,,,,,,,,,,,,,,,,,,,,,,,,",
",,,,,,,,,,,,,,,,,,,,,,,,,,,,,,,,,,,",
",,,,,,,,,,,,,,,,,,,,,,,,,,,,,,,,,,,",
",,,,,,,,,,,,,,,,,,,,,,,,,,,,,,,,,,,",
",,,,,,,,>#@@=,,,,,,,,,,,,,,,,;,,,,,",
",,,,,,,>@+)@@$,,,,,,,,,,,,,,,@',,,,",
",,,,,,,@@>,,&+#,,,,,,,,,,,,,>@',,,,",
",,,,,,*+',,,,=+$,,,,,,,,,,,,%+,,,,,",
",,,,,,#@,,,,,,&+&,,,,,,,,,,,@@,,,,,",
",,,,,;+%,,,,,,,)@,,,,,,,,,,,@%,,,,,",
",,,,,#@,,,,,,,,>+$,,,,,,,,,%+>,,,,,",
",,,,,@$,,,,,,,,,%+>,,,,,,,,+#,,,,,,",
",,,,-+;,,,,,,,,,,@#,,,,,,,%+>,,,,,,",
",,,,)@,,,,,,,,,,,=+!,,,,,=+),,,,,,,",
",,,,@#,,,,,,,,,,,,!@%,,,-@@,,,,,,,,",
",,,,@%,,,,,,,,,,,,,)+!,;@@>,,,,,,,,",
",,,,+>,,,,,,,,,,,,,,$+@+@>,,,,,,,,,",
",,,,@,,,,,,,,,,,,,,,,-&',,,,,,,,,,,",
",,,,,,,,,,,,,,,,,,,,,,,,,,,,,,,,,,,",
",,,,,,,,,,,,,,,,,,,,,,,,,,,,,,,,,,,",
",,,,,,,,,,,,,,,,,,,,,,,,,,,,,,,,,,,",
",,,,,,,,,,,,,,,,,,,,,,,,,,,,,,,,,,,",
",,,,,,,,,,,,,,,,,,,,,,,,,,,,,,,,,,,",
",,,,,,,,,,,,,,,,,,,,,,,,,,,,,,,,,,,",
",,,,,,,,,,,,,,,,,,,,,,,,,,,,,,,,,,,",
",,,,,,,,,,,,,,,,,,,,,,,,,,,,,,,,,,,",
"...................................",
".........,,.,.,.,,..,.,.,,,........",
"........,...,.,.,.,.,.,.,..........",
"........,...,.,.,,..,.,.,,.........",
"........,...,.,.,.,.,.,.,..........",
".........,,.,,,.,.,..,..,,,........",
"..................................."};
