/* XPM */
static char * ellipse_xpm[] = {
"35 35 17 1",
" 	c None",
".	c #FE0202",
"+	c #6A7E92",
"@	c #75879B",
"#	c #95A4B3",
"$	c #9EADBA",
"%	c #A6B2BE",
"&	c #BAC2CE",
"*	c #BAC6CE",
"=	c #D2DADE",
"-	c #D6DEE2",
";	c #DEE2E6",
">	c #EAEEF2",
",	c #F2F2F6",
"'	c #8294A6",
")	c #F6F6F6",
"!	c #FEFEFE",
"!!!!!!!!!!!!!!!!!!!!!!!!!!!!!!!!!!!",
"!!!!!!!!!!!!!!!!!!!!!!!!!!!!!!!!!!!",
"!!!!!!!!!!!!!!!!!!!!!!!!!!!!!!!!!!!",
"!!!!!!!!!!!!!!!!!!!!!!!!!!!!!!!!!!!",
"!!!!!!!!!!!!!!!!!!!!!!!!!!!!!!!!!!!",
"!!!!!!!!!!!!!!!!!!!!!!!!!!!!!!!!!!!",
"!!!!!!!!!!!!!!!!!!!!!!!!!!!!!!!!!!!",
"!!!!!!!!!!!;&$'@@+++''$&;!!!!!!!!!!",
"!!!!!!!!-#++++++++++++++++#-!!!!!!!",
"!!!!!!='+++#&-,)!!!!)>-*#+++'=!!!!!",
"!!!!!$++$,!!!!!!!!!!!!!!!!,$++$!!!!",
"!!!!#+#!!!!!!!!!!!!!!!!!!!!!!#+#!!!",
"!!!*+%!!!!!!!!!!!!!!!!!!!!!!!!%+*!!",
"!!!'+)!!!!!!!!!!!!!!!!!!!!!!!!)+'!!",
"!!!++)!!!!!!!!!!!!!!!!!!!!!!!!)++!!",
"!!!'+%!!!!!!!!!!!!!!!!!!!!!!!!%+'!!",
"!!!&++#!!!!!!!!!!!!!!!!!!!!!!#++*!!",
"!!!!#+++%,!!!!!!!!!!!!!!!!,%+++#!!!",
"!!!!!$+++++#*->)!!!!),-*#+++++$!!!!",
"!!!!!!=@++++++++++++++++++++@=!!!!!",
"!!!!!!!!-#++++++++++++++++#-!!!!!!!",
"!!!!!!!!!!!;&$'@@++@@'#&;!!!!!!!!!!",
"!!!!!!!!!!!!!!!!!!!!!!!!!!!!!!!!!!!",
"!!!!!!!!!!!!!!!!!!!!!!!!!!!!!!!!!!!",
"!!!!!!!!!!!!!!!!!!!!!!!!!!!!!!!!!!!",
"!!!!!!!!!!!!!!!!!!!!!!!!!!!!!!!!!!!",
"!!!!!!!!!!!!!!!!!!!!!!!!!!!!!!!!!!!",
"!!!!!!!!!!!!!!!!!!!!!!!!!!!!!!!!!!!",
"...................................",
"....!!!.!...!...!!!.!!...!!.!!!....",
"....!...!...!....!..!.!.!...!......",
"....!!..!...!....!..!!...!..!!.....",
"....!...!...!....!..!.....!.!......",
"....!!!.!!!.!!!.!!!.!...!!..!!!....",
"..................................."};
