/* XPM */
static char * surface_xpm[] = {
"35 35 17 1",
" 	c None",
".	c #FE0202",
"+	c #6F859C",
"@	c #FEFEFE",
"#	c #C2D9ED",
"$	c #A6C2DA",
"%	c #A1B6C9",
"&	c #8CA7C0",
"*	c #7C97AF",
"=	c #728AA1",
"-	c #DAEEFB",
";	c #768EA5",
">	c #8AA2B9",
",	c #7992AA",
"'	c #9AABBB",
")	c #B4C3D2",
"!	c #839EB7",
"@@@@@@@@@@@@@@@@@@@@@@@@@@@@@@@@@@@",
"@@@@@@-)%%%%'%''''''''%%%%%)#@@@@@@",
"@@@@@-)&*,;;==++++++++++,,,!$#@@@@@",
"@@@@@#>!*,;;====+++===;;;,**!&@@@@@",
"@@@@@)***,,,;;===;====;;,,,**!@@@@@",
"@@@@@),,,,,;;;;;;==;;;;,;,,,,*@@@@@",
"@@@@@);;,;,,,,,,,,;,,,;,;,,;;,@@@@@",
"@@@@@)=;;,,,,,,,,,*,,,,,,,;;;,@@@@@",
"@@@@@)+=;;,,,,**,******,,,;==;@@@@@",
"@@@@@)===;;;****!!!!**,,;;;=+=@@@@@",
"@@@@@)++=;,,,*!'%$%'>!*,,;;=+=@@@@@",
"@@@@@)+==;;,**&$#--#%!**,;==++@@@@@",
"@@@@@%++=;;,*!%#@@@#$&*,,;==++@@@@@",
"@@@@@)+++;,,,*$#@@@@)&**,;=++=@@@@@",
"@@@@@%+==;,***%#@@@-$&*,,;;=++@@@@@",
"@@@@@)++==;,**%$#--#%>,*,;=++=@@@@@",
"@@@@@)++;;;,**!%$$$%&**,,;;++=@@@@@",
"@@@@@)+==;,,*,*!!&&!**,,,;;;==@@@@@",
"@@@@@)+=;;,,**,********,,;;==;@@@@@",
"@@@@@)=;;,,,,,,,,,**,,,,,,;;=;@@@@@",
"@@@@@);,;;;,,,,,,;;,,,;,,,,,;,@@@@@",
"@@@@@),,,,*=,;,;=;;;;;,,;,,,,*@@@@@",
"@@@@@)***,,;;========;;,,,,***@@@@@",
"@@@@@#!*,,,,=====++====;;,*,!&@@@@@",
"@@@@@-$&*,;===+++++++++;;;*!%#@@@@@",
"@@@@@@-$'%'''&&>&>>>>''''%'%#@@@@@@",
"@@@@@@@@@@@@@@@@@@@@@@@@@@@@@@@@@@@",
"@@@@@@@@@@@@@@@@@@@@@@@@@@@@@@@@@@@",
"...................................",
".....@@.@.@.@@..@@@..@...@@.@@@....",
"....@...@.@.@.@.@...@.@.@...@......",
".....@..@.@.@@..@@..@@@.@...@@.....",
"......@.@.@.@.@.@...@.@.@...@......",
"....@@..@@@.@.@.@...@.@..@@.@@@....",
"..................................."};
