/* XPM */
static char * tube_xpm[] = {
"35 35 17 1",
" 	c None",
".	c #FE0202",
"+	c #1E2428",
"@	c #6E849A",
"#	c #738A9D",
"$	c #88939D",
"%	c #A4ACB4",
"&	c #B3BCC5",
"*	c #495663",
"=	c #C5CACF",
"-	c #536372",
";	c #D7DBDF",
">	c #DFE2E5",
",	c #5D6E80",
"'	c #677A8E",
")	c #FEFEFE",
"!	c #3B4650",
")))))))))))))))))))))))))))))))))))",
"))))))))))))>=&&%%&&=;)))))))))))))",
")))))))));$,,'@@##@@',,#&))))))))))",
"))))))))$!*-,'@@##@@',--!->))))))))",
")))))));+!*-,''@##@@',,*!+$))))))))",
")))))))>+!*-,'@@##@@',,*!+%))))))))",
"))))))))!!*-,''@###@',-**!&))))))))",
"))))))))**,,,'@@#@@@'',,-*=))))))))",
"))))))))---,'@@@@##@@'',-*>))))))))",
"))))))))'--'''#####@@',,-!)))))))))",
"))))))))$*,,'@@@####'''--*)))))))))",
"))))))))%*-,''@@####@'',*,)))))))))",
"))))))))%*-,'@@###@@@',--')))))))))",
"))))))))=*-,'@@@###@@''-*$)))))))))",
"))))))));*-,''@###@@@',,*%)))))))))",
"))))))))>*-,''@@###@@',-*%)))))))))",
")))))))))*-,,@@###@@'''-*=)))))))))",
")))))))))--,''@@###@@',-*;)))))))))",
")))))))))'*,,@@@##@#'',-!))))))))))",
")))))))))#-,,@@@##@@'',-*))))))))))",
")))))))))%*,,'@@###@@',-'))))))))))",
"))))))))))',''@@###@'',->))))))))))",
")))))))))))$,'@@###@''';)))))))))))",
"))))))))))));$#@@##@$&)))))))))))))",
")))))))))))))))>;;;))))))))))))))))",
")))))))))))))))))))))))))))))))))))",
")))))))))))))))))))))))))))))))))))",
")))))))))))))))))))))))))))))))))))",
"...................................",
"..........))).).).))..)))..........",
"...........)..).).).).)............",
"...........)..).).))..))...........",
"...........)..).).).).)............",
"...........)..))).))..)))..........",
"..................................."};
